# xmcd CD database file
#
# Track frame offsets:
#	150
#	27093
#	54686
#	74996
#	95391
#
# Disc length: 1671 seconds
#
# Revision: 0
# Processed by: cddbd v1.5.2PL0 Copyright (c) Steve Scherf et al.
# Submitted via: CDex 1.70beta3
#
DISCID=44068505
DTITLE=Sonny Rollins - The Cool Jazz Collection 59
DYEAR=2010
DGENRE=Jazz
TTITLE0=The Bridge
TTITLE1=Don't Stop the Carnival
TTITLE2=On Impulse
TTITLE3=Keep Hold of Yourself
TTITLE4=Isn't She Lovely
EXTD=YEAR: 2010
EXTT0=
EXTT1=
EXTT2=
EXTT3=
EXTT4=
PLAYORDER=
